# xmcd
#
# Track frame offsets:
#	183
#	19773
#	36425
#	54118
#
# Disc length: 944 seconds
#
# Revision: 0
# Processed by: cddbd v1.4PL0 Copyright (c) Steve Scherf et al.
# Submitted via: dBpowerAMP V4.0
#
DISCID=2803ae04
DTITLE=Garth Brooks - Shameless
DYEAR=1989
DGENRE=Country
TTITLE0=Shameless
TTITLE1=The Dance
TTITLE2=Rodeo
TTITLE3=The Thunder Rolls
EXTD=ISkool
EXTT0=
EXTT1=
EXTT2=
EXTT3=
PLAYORDER=
